<svg id="bold" enable-background="new 0 0 24 24" height="512" viewBox="0 0 24 24" width="512" xmlns="http://www.w3.org/2000/svg"><path d="m23 17h-22c-.552 0-1 .447-1 1s.448 1 1 1h22c.552 0 1-.447 1-1s-.448-1-1-1z"/><path d="m10.5 6.25c0 .26.03.51.1.75h-6.6v10h-2v-10c0-1.1.9-2 2-2h6.5z"/><path d="m22 9.11v7.89h-2v-7.59c.53-.12 1.01-.38 1.4-.73l.5.37c.03.02.06.05.1.06z"/><circle cx="11" cy="11" r="2"/><path d="m15 16.75v.25h-8v-.25c0-1.52 1.23-2.75 2.75-2.75h2.5c1.52 0 2.75 1.23 2.75 2.75z"/><path d="m23.25 8c-.159 0-.318-.051-.45-.15l-1.816-1.362c-.116.853-.85 1.512-1.734 1.512h-5.5c-.965 0-1.75-.785-1.75-1.75v-4.75c0-.692.458-1.5 1.75-1.5h5.5c.932 0 1.696.732 1.747 1.651l1.773-1.477c.222-.187.534-.227.798-.103s.432.388.432.679v6.5c0 .284-.161.544-.415.671-.106.053-.221.079-.335.079z"/></svg>